<svg width="72" height="88" viewBox="0 0 72 88" fill="none" xmlns="http://www.w3.org/2000/svg">
<rect x="2" width="70" height="86" rx="5" fill="#4A4646"/>
<rect y="2" width="70" height="86" rx="5" fill="url(#paint0_linear_27_21)"/>
<rect y="2" width="7" height="86" rx="2" fill="url(#paint1_linear_27_21)"/>
<ellipse cx="38.7143" cy="59.5325" rx="27.7143" ry="7.55844" fill="url(#paint2_linear_27_21)"/>
<path d="M39.6674 40.4603C34.1983 49.3033 38.0671 57.7191 40.249 58.9788C42.9682 60.5487 49.9228 58.6 55.2137 49.4359C60.5046 40.2718 57.7588 30.5406 57.1094 27.2564C52.7651 29.1121 45.1788 30.9143 39.6674 40.4603Z" fill="url(#paint3_linear_27_21)"/>
<path d="M21.0862 50.061C26.0099 59.2189 35.2326 60.0763 37.4146 58.8166C40.1337 57.2467 41.9234 50.2495 36.6325 41.0853C31.3416 31.9212 21.5412 29.4336 18.3723 28.3539C17.8072 33.044 15.5748 40.515 21.0862 50.061Z" fill="url(#paint4_linear_27_21)"/>
<path d="M29.2758 43.7857C28.9609 54.1786 36.5193 59.5325 39.0388 59.5325C42.1786 59.5325 47.2271 54.3675 47.2271 43.7857C47.2271 33.2039 39.9836 26.1494 37.779 23.6299C34.9446 27.4091 29.2758 32.763 29.2758 43.7857Z" fill="url(#paint5_linear_27_21)"/>
<defs>
<linearGradient id="paint0_linear_27_21" x1="0" y1="2" x2="70" y2="88" gradientUnits="userSpaceOnUse">
<stop stop-color="#C6653C"/>
<stop offset="1" stop-color="#91350E"/>
</linearGradient>
<linearGradient id="paint1_linear_27_21" x1="0" y1="2" x2="17.3045" y2="4.12598" gradientUnits="userSpaceOnUse">
<stop stop-color="#A4471F"/>
<stop offset="1" stop-color="#491A06"/>
</linearGradient>
<linearGradient id="paint2_linear_27_21" x1="11" y1="56.3831" x2="66.4286" y2="64.5714" gradientUnits="userSpaceOnUse">
<stop stop-color="#C4C4C4"/>
<stop offset="0.0001" stop-color="#19D036" stop-opacity="0.994792"/>
<stop offset="1" stop-color="#0C9422"/>
</linearGradient>
<linearGradient id="paint3_linear_27_21" x1="49.7371" y1="23" x2="47.6048" y2="63.2257" gradientUnits="userSpaceOnUse">
<stop stop-color="#FF88CF"/>
<stop offset="1" stop-color="#C20376"/>
</linearGradient>
<linearGradient id="paint4_linear_27_21" x1="11" y1="32.6103" x2="44.7703" y2="54.5697" gradientUnits="userSpaceOnUse">
<stop stop-color="#FF88CF"/>
<stop offset="1" stop-color="#C20376"/>
</linearGradient>
<linearGradient id="paint5_linear_27_21" x1="29.2662" y1="23.6299" x2="47.5325" y2="59.5325" gradientUnits="userSpaceOnUse">
<stop stop-color="#FF88CF"/>
<stop offset="1" stop-color="#C20376"/>
</linearGradient>
</defs>
</svg>
