<svg xmlns="http://www.w3.org/2000/svg" xmlns:xlink="http://www.w3.org/1999/xlink" viewBox="0 0 413.89 413.89"><defs><style>.cls-1{fill:#fff;}.cls-2{fill:url(#linear-gradient);}.cls-3{fill:none;stroke:#fff;stroke-linecap:round;stroke-miterlimit:10;stroke-width:21px;}.cls-4{fill:#f2f2f2;}</style><linearGradient id="linear-gradient" x1="208.4" y1="24.35" x2="208.4" y2="389.54" gradientUnits="userSpaceOnUse"><stop offset="0" stop-color="#00d454"/><stop offset="0.18" stop-color="#00d45d"/><stop offset="0.48" stop-color="#00d477"/><stop offset="0.86" stop-color="#00d4a0"/><stop offset="1" stop-color="#00d4b1"/></linearGradient></defs><g id="Layer_2" data-name="Layer 2"><g id="Icons"><path class="cls-1" d="M413.89,206.94a205.91,205.91,0,0,1-38.2,119.82q-5.6,7.89-11.9,15.2a206.44,206.44,0,0,1-148.06,71.75l-.66,0c-1.48.05-2.95.09-4.42.11-1.23,0-2.46,0-3.7,0h-.75A206.9,206.9,0,0,1,0,206.94C0,92.65,92.65,0,207,0S413.89,92.65,413.89,206.94Z"/><path class="cls-2" d="M391,206.94a181.68,181.68,0,0,1-33.71,105.72q-4.94,7-10.5,13.41a182.15,182.15,0,0,1-130.64,63.31l-.58,0c-1.3.05-2.6.08-3.9.1-1.08,0-2.17,0-3.26,0h-.66A182.56,182.56,0,0,1,25.81,206.94c0-100.84,81.75-182.59,182.6-182.59A182.59,182.59,0,0,1,391,206.94Z"/><path class="cls-1" d="M357.29,312.66q-4.94,7-10.5,13.41a182.15,182.15,0,0,1-130.64,63.31l-.58,0c-1.3.05-2.6.08-3.9.1s-2.61,0-3.92,0A182.76,182.76,0,0,1,58.5,311.22c28.49-21.6,86.84-59.1,148.45-59.1C270,252.12,329.56,291.36,357.29,312.66Z"/><line class="cls-3" x1="206.95" y1="252.12" x2="206.95" y2="185.14"/><path class="cls-1" d="M142.79,179.5s3.45,21.72,16.13,31.51,38.23,10.47,38.23,10.47"/><path class="cls-1" d="M142.79,179.5s21.88-2.14,34.56,7.65,19.8,34.33,19.8,34.33"/><path class="cls-1" d="M271.49,179.5S268,201.22,255.35,211s-38.22,10.47-38.22,10.47"/><path class="cls-1" d="M271.49,179.5s-21.89-2.14-34.57,7.65-19.79,34.33-19.79,34.33"/><path class="cls-4" d="M155.7,80.65V95h-7V80.65l-11-22.89h7.36l7.12,16.05,7.13-16.05h7.35Z"/><path class="cls-4" d="M171.17,94.06a9.2,9.2,0,0,1-3.92-4,13.5,13.5,0,0,1-1.35-6.27V79.5a13.16,13.16,0,0,1,1.35-6.19,9.05,9.05,0,0,1,3.92-3.92,15,15,0,0,1,12.44,0,9.05,9.05,0,0,1,3.92,3.92,13.28,13.28,0,0,1,1.34,6.19v4.41a13.34,13.34,0,0,1-1.34,6.21,9.2,9.2,0,0,1-3.92,3.94,14.9,14.9,0,0,1-12.44,0Zm9.5-6.65a4.88,4.88,0,0,0,1.18-3.5V79.5A4.78,4.78,0,0,0,180.67,76a4.38,4.38,0,0,0-3.31-1.23A4.26,4.26,0,0,0,174.1,76a4.82,4.82,0,0,0-1.17,3.46v4.41a5,5,0,0,0,1.15,3.5,4.28,4.28,0,0,0,3.28,1.24A4.38,4.38,0,0,0,180.67,87.41Z"/><path class="cls-4" d="M201.66,84.6a4,4,0,0,0,1.09,3,4.22,4.22,0,0,0,3.07,1.07,4,4,0,0,0,3-1.09,4.29,4.29,0,0,0,1.07-3.12l.36,5.82a8.23,8.23,0,0,1-2.48,3.67,6.25,6.25,0,0,1-4.21,1.49A8.19,8.19,0,0,1,197,92.66q-2.33-2.76-2.33-7.8V68.42h7Zm8.26-16.18h7V95h-7Z"/><path class="cls-4" d="M220.37,57.76h7v9.18l-7,6.71Z"/><path class="cls-4" d="M230.35,68.42h7.53V95h-7.53Zm13.71,6.64a5.33,5.33,0,0,0-1.72-.25,4.06,4.06,0,0,0-3.29,1.37,5.66,5.66,0,0,0-1.17,3.8l-.54-6.92a9.54,9.54,0,0,1,2.86-3.7A6.28,6.28,0,0,1,244.06,68a8.23,8.23,0,0,1,3,.53,6.51,6.51,0,0,1,2.35,1.55l-4.1,5.71A3.3,3.3,0,0,0,244.06,75.06Z"/><path class="cls-4" d="M257.07,94a9.56,9.56,0,0,1-4.17-4.08,13.52,13.52,0,0,1-1.43-6.44v-3a15.09,15.09,0,0,1,1.37-6.74,9.55,9.55,0,0,1,4-4.26A12.89,12.89,0,0,1,263.18,68a10.11,10.11,0,0,1,6,1.74,10.81,10.81,0,0,1,3.79,5.07,22.12,22.12,0,0,1,1.29,8V84.6H256V79.86h11.79l-.08-.62a6.18,6.18,0,0,0-1.44-3.56,4.05,4.05,0,0,0-3.12-1.26,5.11,5.11,0,0,0-3.93,1.51,6.1,6.1,0,0,0-1.4,4.29V83.6a5.58,5.58,0,0,0,1.53,4.2,5.83,5.83,0,0,0,4.26,1.49,8.32,8.32,0,0,0,2.8-.5A8.53,8.53,0,0,0,269,87.37l4.59,4.07a15.23,15.23,0,0,1-4.67,2.94,14,14,0,0,1-5.23,1A14.29,14.29,0,0,1,257.07,94Z"/><path class="cls-4" d="M164.53,120.76H169L183.25,158h-7.56l-8.93-25.46L157.84,158h-7.56Zm-7.4,24.53h19.61v6.76H157.13Z"/><path class="cls-4" d="M194.37,149.23a2,2,0,0,0,.55,1.5,2.22,2.22,0,0,0,1.58.53h1.18V158h-3.59a6.56,6.56,0,0,1-5-1.85,7.2,7.2,0,0,1-1.77-5.2V120.76h7Z"/><path class="cls-4" d="M202.16,120.76h7v7h-7Zm0,10.66h7V158h-7Z"/><path class="cls-4" d="M230.87,131.42h7l-10,26.61h-5l-10-26.61h7l5.49,16.69Z"/><path class="cls-4" d="M246.29,157a9.51,9.51,0,0,1-4.16-4.07,13.47,13.47,0,0,1-1.44-6.45v-3a15.23,15.23,0,0,1,1.37-6.74,9.58,9.58,0,0,1,4-4.25A12.81,12.81,0,0,1,252.4,131a10.17,10.17,0,0,1,6,1.74,10.82,10.82,0,0,1,3.78,5.06,22.12,22.12,0,0,1,1.29,8v1.74h-18.2v-4.74H257l-.07-.61a6.22,6.22,0,0,0-1.45-3.57,4.08,4.08,0,0,0-3.12-1.25,5.07,5.07,0,0,0-3.93,1.51,6.1,6.1,0,0,0-1.4,4.28v3.38a5.59,5.59,0,0,0,1.53,4.21,5.85,5.85,0,0,0,4.27,1.48,8.2,8.2,0,0,0,2.79-.49,8.56,8.56,0,0,0,2.51-1.43l4.59,4.08a15.35,15.35,0,0,1-4.66,2.93,14,14,0,0,1-5.23,1A14.18,14.18,0,0,1,246.29,157Z"/></g></g></svg>