<svg width="108" height="86" viewBox="0 0 108 86" fill="none" xmlns="http://www.w3.org/2000/svg">
<ellipse cx="54" cy="71.2272" rx="54" ry="14.7273" fill="url(#paint0_linear_21_222)"/>
<path d="M55.8571 34.0659C45.2007 51.2961 52.7389 67.6939 56.9903 70.1485C62.2884 73.2074 75.8392 69.4104 86.1483 51.5545C96.4573 33.6987 91.1073 14.7379 89.8419 8.33881C81.3772 11.9545 66.5957 15.466 55.8571 34.0659Z" fill="url(#paint1_linear_21_222)"/>
<path d="M19.6525 52.7725C29.2461 70.6163 47.2162 72.2869 51.4676 69.8323C56.7657 66.7735 60.2528 53.1397 49.9437 35.2838C39.6346 17.428 20.5391 12.5809 14.3646 10.4772C13.2636 19.6157 8.91385 34.1726 19.6525 52.7725Z" fill="url(#paint2_linear_21_222)"/>
<path d="M35.6096 40.5454C34.996 60.7954 49.7232 71.2272 54.6323 71.2272C60.75 71.2272 70.5868 61.1636 70.5868 40.5454C70.5868 19.9272 56.4732 6.18177 52.1777 1.27268C46.655 8.63632 35.6096 19.0681 35.6096 40.5454Z" fill="url(#paint3_linear_21_222)"/>
<defs>
<linearGradient id="paint0_linear_21_222" x1="5.85336e-07" y1="65.0909" x2="108" y2="81.0454" gradientUnits="userSpaceOnUse">
<stop stop-color="#C4C4C4"/>
<stop offset="0.0001" stop-color="#19D036" stop-opacity="0.994792"/>
<stop offset="1" stop-color="#0C9422"/>
</linearGradient>
<linearGradient id="paint1_linear_21_222" x1="75.4773" y1="0.0454102" x2="71.3227" y2="78.4233" gradientUnits="userSpaceOnUse">
<stop stop-color="#FF88CF"/>
<stop offset="1" stop-color="#C20376"/>
</linearGradient>
<linearGradient id="paint2_linear_21_222" x1="0" y1="18.7706" x2="65.7999" y2="61.5576" gradientUnits="userSpaceOnUse">
<stop stop-color="#FF88CF"/>
<stop offset="1" stop-color="#C20376"/>
</linearGradient>
<linearGradient id="paint3_linear_21_222" x1="35.5909" y1="1.27268" x2="71.1818" y2="71.2272" gradientUnits="userSpaceOnUse">
<stop stop-color="#FF88CF"/>
<stop offset="1" stop-color="#C20376"/>
</linearGradient>
</defs>
</svg>
